<?xml version="1.0" standalone="no"?>
<!DOCTYPE svg PUBLIC "-//W3C//DTD SVG 20010904//EN"
 "http://www.w3.org/TR/2001/REC-SVG-20010904/DTD/svg10.dtd">
<svg version="1.0" xmlns="http://www.w3.org/2000/svg"
 width="228.000000pt" height="228.000000pt" viewBox="0 0 228.000000 228.000000"
 preserveAspectRatio="xMidYMid meet">
<metadata>
Created by potrace 1.11, written by Peter Selinger 2001-2013
</metadata>
<g transform="translate(0.000000,228.000000) scale(0.100000,-0.100000)"
fill="#000000" stroke="none">
<path d="M965 2240 c-162 -26 -347 -99 -479 -190 -87 -60 -224 -198 -285 -288
-298 -439 -237 -1044 143 -1412 96 -94 178 -151 291 -206 311 -149 655 -150
962 -4 116 55 195 110 296 209 247 240 367 573 328 910 -57 485 -399 863 -876
967 -85 19 -298 26 -380 14z m400 -205 c362 -105 609 -384 675 -761 8 -46 11
-117 7 -195 -4 -109 -9 -136 -40 -220 -56 -154 -108 -242 -203 -348 -95 -106
-284 -225 -397 -251 -23 -5 -62 -16 -86 -25 -61 -21 -229 -30 -326 -16 -110
16 -260 69 -357 127 -155 93 -301 262 -373 432 -184 437 -12 935 406 1176 66
37 197 84 287 101 115 22 293 13 407 -20z"/>
<path d="M959 1984 c-42 -7 -88 -18 -102 -23 l-27 -10 -2 -253 -3 -253 -156
153 -156 153 -45 -51 c-24 -27 -63 -83 -87 -122 l-43 -72 79 -75 c43 -42 128
-124 190 -183 l111 -107 -72 -69 c-39 -38 -124 -121 -190 -184 l-118 -114 43
-72 c61 -102 120 -168 141 -156 9 5 81 72 160 149 l143 140 5 -255 5 -255 70
-18 c39 -9 103 -20 143 -24 l72 -6 0 862 0 861 -42 -1 c-24 0 -77 -7 -119 -15z"/>
<path d="M1400 1695 c0 -140 3 -255 8 -255 4 0 77 70 162 155 l154 154 -29 32
c-55 57 -244 169 -285 169 -6 0 -10 -97 -10 -255z"/>
<path d="M1702 1325 l-183 -184 183 -186 c100 -102 186 -185 190 -185 13 0 38
68 64 170 40 160 29 345 -30 504 -12 33 -27 61 -32 63 -6 2 -92 -80 -192 -182z"/>
<path d="M1400 585 c0 -158 4 -255 10 -255 41 0 230 112 285 169 l29 32 -154
154 c-85 85 -158 155 -162 155 -5 0 -8 -115 -8 -255z"/>
</g>
</svg>
