<?xml version="1.0" standalone="no"?>
<!DOCTYPE svg PUBLIC "-//W3C//DTD SVG 20010904//EN"
 "http://www.w3.org/TR/2001/REC-SVG-20010904/DTD/svg10.dtd">
<svg version="1.0" xmlns="http://www.w3.org/2000/svg"
 width="228.000000pt" height="228.000000pt" viewBox="0 0 228.000000 228.000000"
 preserveAspectRatio="xMidYMid meet">
<metadata>
Created by potrace 1.11, written by Peter Selinger 2001-2013
</metadata>
<g transform="translate(0.000000,228.000000) scale(0.100000,-0.100000)"
fill="#000000" stroke="none">
<path d="M1010 2245 c-8 -2 -49 -9 -90 -15 -212 -35 -405 -135 -573 -299 -353
-344 -437 -862 -209 -1304 152 -297 432 -505 777 -579 77 -16 333 -16 410 0
595 127 977 663 891 1249 -69 466 -409 829 -870 929 -65 14 -301 28 -336 19z
m332 -204 c175 -46 313 -125 439 -252 186 -187 277 -432 266 -709 -4 -116 -8
-133 -46 -235 -71 -189 -166 -323 -304 -431 -70 -55 -254 -154 -286 -154 -9 0
-45 -9 -81 -21 -92 -29 -242 -35 -356 -15 -583 102 -925 686 -724 1237 73 200
229 383 421 493 66 38 198 84 287 101 103 19 282 13 384 -14z"/>
<path d="M959 1984 c-42 -7 -88 -18 -102 -23 l-27 -10 -2 -253 -3 -253 -156
153 -156 153 -45 -51 c-24 -27 -64 -83 -87 -122 l-43 -72 188 -182 c214 -205
203 -177 104 -268 -30 -28 -108 -103 -173 -167 l-119 -115 43 -72 c24 -39 63
-94 87 -122 l44 -50 156 151 157 152 5 -254 5 -254 70 -18 c39 -9 103 -20 143
-24 l72 -6 0 862 0 861 -42 -1 c-24 0 -77 -7 -119 -15z"/>
<path d="M1400 1695 c0 -140 3 -255 8 -255 4 0 77 70 162 155 l154 154 -29 32
c-55 57 -244 169 -285 169 -6 0 -10 -97 -10 -255z"/>
<path d="M1701 1325 l-183 -186 183 -184 c101 -102 187 -185 191 -185 12 0 37
66 64 168 41 156 30 346 -30 506 -12 33 -27 61 -32 63 -6 2 -92 -80 -193 -182z"/>
<path d="M1400 585 c0 -158 4 -255 10 -255 41 0 230 112 285 169 l29 32 -154
154 c-85 85 -158 155 -162 155 -5 0 -8 -115 -8 -255z"/>
</g>
</svg>
